<svg xmlns="http://www.w3.org/2000/svg" width="61.62" height="75.3" viewBox="0 0 61.62 75.3">
  <defs>
    <style>
      .cls-1 {
        fill: #fff;
        fill-rule: evenodd;
      }
    </style>
  </defs>
  <path id="Shape_79_copy" data-name="Shape 79 copy" class="cls-1" d="M2627.19,18061.4a16.122,16.122,0,0,1,11.87-6.5,15.955,15.955,0,0,1-3.9,12c-5.27,6.3-11.26,5.2-11.26,5.2S2622.78,18067.2,2627.19,18061.4Zm-2.65,15c2.55,0,7.29-3.5,13.46-3.5,10.63,0,14.8,7.6,14.8,7.6a16.189,16.189,0,0,0-8.17,14.2c0,11.4,10.18,15.3,10.18,15.3s-7.11,19.9-16.73,19.9c-4.41,0-7.85-2.9-12.5-2.9-4.74,0-9.45,3.1-12.51,3.1-8.78,0-19.87-19-19.87-34.2,0-14.9,9.39-22.8,18.19-22.8C2617.12,18073.1,2621.56,18076.4,2624.54,18076.4Z" transform="translate(-2593.19 -18054.8)"/>
</svg>
