<svg xmlns="http://www.w3.org/2000/svg" width="41.69" height="22.81" viewBox="0 0 41.69 22.81">
  <defs>
    <style>
      .cls-1 {
        fill: #c0482f;
        fill-rule: evenodd;
      }
    </style>
  </defs>
  <path id="Shape_99_copy_2" data-name="Shape 99 copy 2" class="cls-1" d="M2515.21,8003.66a1.744,1.744,0,0,0-2.48,0l-17.85,18.02-17.84-18.02a1.744,1.744,0,0,0-2.48,0,1.8,1.8,0,0,0,0,2.51l19.08,19.27a1.734,1.734,0,0,0,1.24.52,2.635,2.635,0,0,0,.28-0.02,1.163,1.163,0,0,0,.18-0.04c0.01,0,.03-0.01.04-0.01h0.01a1.751,1.751,0,0,0,.73-0.45l19.09-19.27A1.8,1.8,0,0,0,2515.21,8003.66Z" transform="translate(-2474.06 -8003.16)"/>
</svg>
