<svg xmlns="http://www.w3.org/2000/svg" width="41.687" height="22.81" viewBox="0 0 41.687 22.81">
  <defs>
    <style>
      .cls-1 {
        fill: #fff;
        fill-rule: evenodd;
      }
    </style>
  </defs>
  <path id="arrow__down__white" class="cls-1" d="M636.206,7180.66a1.744,1.744,0,0,0-2.48,0l-17.842,18.02-17.842-18.02a1.746,1.746,0,0,0-2.481,0,1.79,1.79,0,0,0,0,2.51l19.082,19.27a1.727,1.727,0,0,0,1.241.52,2.488,2.488,0,0,0,.272-0.02,1.173,1.173,0,0,0,.183-0.04c0.015,0,.03-0.01.044-0.01h0.008a1.686,1.686,0,0,0,.733-0.45l19.082-19.27A1.79,1.79,0,0,0,636.206,7180.66Z" transform="translate(-595.063 -7180.16)"/>
</svg>
