<svg xmlns="http://www.w3.org/2000/svg" width="46" height="38" viewBox="0 0 46 38">
  <defs>
    <style>
      .cls-1 {
        fill: #331f1c;
        fill-rule: evenodd;
      }
    </style>
  </defs>
  <path id="_-e-Shape_5_copy" data-name="-e-Shape 5 copy" class="cls-1" d="M2503.99,273.5h-30.52l-2.23-6h-11.23v4h8.43l1.7,4.551a0.744,0.744,0,0,0,.04.149l6.03,16.08a2,2,0,0,0,2.08,1.289l20.21-2a2.045,2.045,0,0,0,1.67-1.244l5.69-14.078A2.006,2.006,0,0,0,2503.99,273.5Zm-7.1,14.21-17.46,1.729-4.47-11.937h26.06Zm-22.82,9.789a4,4,0,1,0,4.02,4v0a4.018,4.018,0,0,0-4.02-4v0Zm20.1,0a4,4,0,1,0,4.01,4v0a4.009,4.009,0,0,0-4.01-4v0Z" transform="translate(-2460 -267.5)"/>
</svg>
