<svg xmlns="http://www.w3.org/2000/svg" width="84" height="84" viewBox="0 0 84 84">
  <defs>
    <style>
      .cls-1 {
        fill: #c0482f;
        fill-rule: evenodd;
      }
    </style>
  </defs>
  <path class="cls-1" d="M1393.77,1936.72a6.572,6.572,0,0,0,6.57,6.56h7.71a6.564,6.564,0,0,0,6.56-6.56v-7.71a6.564,6.564,0,0,0-6.56-6.56h-7.71a6.572,6.572,0,0,0-6.57,6.56v7.71Zm6.57-7.71h7.71v7.71h-7.71v-7.71Zm10.99-20.84a3.28,3.28,0,1,1-3.28,3.28A3.282,3.282,0,0,1,1411.33,1908.17Zm-14.28,0a3.28,3.28,0,1,1-3.28,3.28A3.284,3.284,0,0,1,1397.05,1908.17Zm31.67,26.58a3.282,3.282,0,0,0,3.28-3.28v-34.78a13.145,13.145,0,0,0-13.13-13.13h-4.26v-3.28a3.28,3.28,0,1,0-6.56,0v3.28h-14.93v-3.28a3.285,3.285,0,0,0-6.57,0v3.28h-14.76v-3.28a3.28,3.28,0,0,0-6.56,0v3.28h-4.1a13.145,13.145,0,0,0-13.13,13.13v51.18a13.145,13.145,0,0,0,13.13,13.13h57.74a13.145,13.145,0,0,0,13.13-13.13,3.28,3.28,0,0,0-6.56,0,6.581,6.581,0,0,1-6.57,6.57h-57.74a6.581,6.581,0,0,1-6.57-6.57v-51.18a6.581,6.581,0,0,1,6.57-6.57h4.1v3.29a3.28,3.28,0,0,0,6.56,0v-3.29h14.76v3.29a3.285,3.285,0,0,0,6.57,0v-3.29h14.93v3.29a3.28,3.28,0,1,0,6.56,0v-3.29h4.26a6.581,6.581,0,0,1,6.57,6.57v34.78A3.282,3.282,0,0,0,1428.72,1934.75Zm-60.21,1.97a3.28,3.28,0,1,1-3.28,3.28A3.282,3.282,0,0,1,1368.51,1936.72Zm0-28.55a3.28,3.28,0,1,1-3.28,3.28A3.282,3.282,0,0,1,1368.51,1908.17Zm0,14.28a3.28,3.28,0,1,1-3.28,3.28A3.276,3.276,0,0,1,1368.51,1922.45Zm14.27,0a3.28,3.28,0,1,1-3.28,3.28A3.276,3.276,0,0,1,1382.78,1922.45Zm0-14.28a3.28,3.28,0,1,1-3.28,3.28A3.282,3.282,0,0,1,1382.78,1908.17Zm0,28.55a3.28,3.28,0,1,1-3.28,3.28A3.282,3.282,0,0,1,1382.78,1936.72Z" transform="translate(-1348 -1877)"/>
</svg>
