<svg xmlns="http://www.w3.org/2000/svg" width="84" height="69.03" viewBox="0 0 84 69.03">
  <defs>
    <style>
      .cls-1 {
        fill: #c0482f;
        fill-rule: evenodd;
      }
    </style>
  </defs>
  <path class="cls-1" d="M2121.96,1920.01l-1.88-9.51a13.006,13.006,0,0,0-2.71-6.22,8.724,8.724,0,0,0-6.86-3h-10.99v-13.07a3.273,3.273,0,0,0-3.29-3.26h-6.97a3.26,3.26,0,1,0,0,6.52h3.69v28.4h-28.54a3.265,3.265,0,1,0,0,6.53h54.63a3.229,3.229,0,0,0,.88-0.13,6.228,6.228,0,0,1,5.52,6.16v8.48h-7.13a9.864,9.864,0,0,0-18.56,0h-20.32a9.864,9.864,0,0,0-18.56,0,6.559,6.559,0,0,1-6.31-6.52V1923.7a3.28,3.28,0,0,0-6.56,0v10.69a13.1,13.1,0,0,0,12.87,13.04,9.862,9.862,0,0,0,18.56.01h20.32a9.864,9.864,0,0,0,18.56,0h10.41a3.273,3.273,0,0,0,3.28-3.27v-11.74A12.75,12.75,0,0,0,2121.96,1920.01Zm-22.44-12.21h10.99c1,0,2.37,0,3.13,3.94v0.01l1.61,8.12h-15.73V1907.8Zm-29.37,39.64a3.265,3.265,0,1,1,3.28-3.27A3.28,3.28,0,0,1,2070.15,1947.44Zm38.88,0a3.265,3.265,0,1,1,3.28-3.27A3.28,3.28,0,0,1,2109.03,1947.44ZM2048,1888.23a3.271,3.271,0,0,1,3.28-3.26h24.94a3.26,3.26,0,1,1,0,6.52h-24.94A3.271,3.271,0,0,1,2048,1888.23Zm0,11.74a3.271,3.271,0,0,1,3.28-3.26h18.38a3.26,3.26,0,1,1,0,6.52h-18.38A3.271,3.271,0,0,1,2048,1899.97Zm0,11.74a3.271,3.271,0,0,1,3.28-3.26h11.81a3.265,3.265,0,1,1,0,6.53h-11.81A3.273,3.273,0,0,1,2048,1911.71Z" transform="translate(-2048 -1884.94)"/>
</svg>
