<svg xmlns="http://www.w3.org/2000/svg" width="60" height="49" viewBox="0 0 60 49">
  <defs>
    <style>
      .cls-1 {
        fill: #fff;
        fill-rule: evenodd;
      }
    </style>
  </defs>
  <path id="Shape_96_copy" data-name="Shape 96 copy" class="cls-1" d="M664.829,15489.8l-1.342-6.7a8.806,8.806,0,0,0-1.938-4.4,6.306,6.306,0,0,0-4.9-2.2H648.8v-9.2a2.389,2.389,0,0,0-2.344-2.4h-4.98a2.35,2.35,0,0,0,0,4.7h2.636v20.1h-20.39a2.35,2.35,0,0,0,0,4.7h39.023c0.218,0,.427-0.1.626-0.1a4.362,4.362,0,0,1,3.945,4.3v6.1h-5.091a7.023,7.023,0,0,0-13.256,0H634.448a7.022,7.022,0,0,0-13.254,0,4.727,4.727,0,0,1-4.506-4.7v-7.5a2.345,2.345,0,1,0-4.688,0v7.5a9.328,9.328,0,0,0,9.191,9.3,7.076,7.076,0,0,0,13.257,0h14.518a7.075,7.075,0,0,0,13.256,0h7.434A2.3,2.3,0,0,0,672,15507v-8.4A9.066,9.066,0,0,0,664.829,15489.8Zm-16.032-8.6h7.851c0.716,0,1.7,0,2.237,2.8h0l1.146,5.7H648.8v-8.5Zm-20.977,28.1a2.3,2.3,0,1,1,2.344-2.3A2.3,2.3,0,0,1,627.82,15509.3Zm27.774,0a2.3,2.3,0,1,1,2.344-2.3A2.305,2.305,0,0,1,655.594,15509.3Zm-43.594-42a2.3,2.3,0,0,1,2.344-2.3h17.812a2.3,2.3,0,1,1,0,4.6H614.344A2.3,2.3,0,0,1,612,15467.3Zm0,8.3a2.3,2.3,0,0,1,2.344-2.3h13.125a2.3,2.3,0,1,1,0,4.6H614.344A2.3,2.3,0,0,1,612,15475.6Zm0,8.3a2.369,2.369,0,0,1,2.344-2.3h8.437a2.35,2.35,0,0,1,0,4.7h-8.437A2.389,2.389,0,0,1,612,15483.9Z" transform="translate(-612 -15464.9)"/>
</svg>
