<svg xmlns="http://www.w3.org/2000/svg" width="84" height="84" viewBox="0 0 84 84">
  <defs>
    <style>
      .cls-1 {
        fill: #c0482f;
        fill-rule: evenodd;
      }
    </style>
  </defs>
  <path class="cls-1" d="M690,1896.69a9.845,9.845,0,1,0-9.844-9.85A9.859,9.859,0,0,0,690,1896.69Zm0-13.13a3.28,3.28,0,1,1-3.281,3.28A3.283,3.283,0,0,1,690,1883.56Zm18.047,45.63a11.556,11.556,0,0,1-5.576,9.85l-0.237.14a4.939,4.939,0,0,0-2.39,4.22v14.32a3.282,3.282,0,0,1-6.563,0V1943.4a11.543,11.543,0,0,1,5.576-9.85l0.237-.14a4.95,4.95,0,0,0,2.39-4.22v-14.62c0-6.78-6.29-8.2-11.566-8.2s-11.566,1.42-11.566,8.2v14.57a4.931,4.931,0,0,0,2.426,4.24l0.279,0.17a11.512,11.512,0,0,1,5.662,9.89v14.28a3.282,3.282,0,0,1-6.563,0v-14.28a4.946,4.946,0,0,0-2.426-4.24l-0.279-.16a11.539,11.539,0,0,1-5.662-9.9v-14.57a13.321,13.321,0,0,1,5.772-11.52c3.089-2.12,7.362-3.24,12.357-3.24s9.268,1.12,12.357,3.24a13.321,13.321,0,0,1,5.772,11.52v14.62Zm-43.641-25.94a9.845,9.845,0,1,0-9.844-9.84A9.85,9.85,0,0,0,664.406,1903.25Zm0-13.13a3.285,3.285,0,1,1-3.281,3.29A3.292,3.292,0,0,1,664.406,1890.12Zm9.844,56.11v11.49a3.282,3.282,0,0,1-6.563,0v-11.49A3.282,3.282,0,0,1,674.25,1946.23Zm-6.891-36.5a3.281,3.281,0,0,1-3.281,3.28c-9.516,0-9.516,4.47-9.516,6.15v13.95a4.959,4.959,0,0,0,1.969,3.94,11.524,11.524,0,0,1,4.594,9.18v11.49a3.282,3.282,0,0,1-6.563,0v-11.49a4.925,4.925,0,0,0-1.968-3.93,11.54,11.54,0,0,1-4.594-9.19v-13.95a11.383,11.383,0,0,1,5.267-10.13c2.688-1.71,6.325-2.58,10.811-2.58A3.281,3.281,0,0,1,667.359,1909.73Zm48.235-6.48a9.845,9.845,0,1,0-9.844-9.84A9.85,9.85,0,0,0,715.594,1903.25Zm0-13.13a3.285,3.285,0,1,1-3.281,3.29A3.292,3.292,0,0,1,715.594,1890.12Zm-3.281,56.11v11.49a3.282,3.282,0,0,1-6.563,0v-11.49A3.282,3.282,0,0,1,712.313,1946.23ZM732,1919.16v13.95a11.54,11.54,0,0,1-4.594,9.19,4.925,4.925,0,0,0-1.968,3.93v11.49a3.282,3.282,0,0,1-6.563,0v-11.49a11.524,11.524,0,0,1,4.594-9.18,4.959,4.959,0,0,0,1.969-3.94v-13.95c0-1.68,0-6.15-9.516-6.15a3.28,3.28,0,1,1,0-6.56c4.486,0,8.123.87,10.811,2.58A11.383,11.383,0,0,1,732,1919.16Z" transform="translate(-648 -1877)"/>
</svg>
