<svg xmlns="http://www.w3.org/2000/svg" width="40" height="40" viewBox="0 0 40 40">
  <defs>
    <style>
      .cls-1 {
        fill: #331f1c;
        fill-rule: evenodd;
      }
    </style>
  </defs>
  <path id="_-e-Shape_6_copy_3" data-name="-e-Shape 6 copy 3" class="cls-1" d="M2660.74,16556.8h-17.92a11.009,11.009,0,0,0-11.04,11v17.9a11.094,11.094,0,0,0,11.04,11.1h17.92a11.1,11.1,0,0,0,11.04-11.1v-17.9A11.015,11.015,0,0,0,2660.74,16556.8Zm7.49,28.9h0a7.456,7.456,0,0,1-7.49,7.5h-17.92a7.456,7.456,0,0,1-7.49-7.5v-17.9a7.52,7.52,0,0,1,7.49-7.5h17.92a7.526,7.526,0,0,1,7.49,7.5v17.9Zm-5.71-22.2h0a2.6,2.6,0,0,0,0,5.2,2.594,2.594,0,0,0,1.84-.8,2.545,2.545,0,0,0,.76-1.8,2.737,2.737,0,0,0-.76-1.9A2.5,2.5,0,0,0,2662.52,16563.5Zm-10.74,3a10.3,10.3,0,1,0,10.31,10.3A10.307,10.307,0,0,0,2651.78,16566.5Zm0,17a6.739,6.739,0,0,1-6.76-6.7,6.76,6.76,0,1,1,13.52,0A6.739,6.739,0,0,1,2651.78,16583.5Z" transform="translate(-2631.78 -16556.8)"/>
</svg>
