<svg xmlns="http://www.w3.org/2000/svg" width="55.938" height="55.87" viewBox="0 0 55.938 55.87">
  <defs>
    <style>
      .cls-1 {
        fill: #c0482f;
        fill-rule: evenodd;
      }
    </style>
  </defs>
  <path class="cls-1" d="M605.95,1158.06a27.63,27.63,0,0,1-1.132,7.83,2.184,2.184,0,1,1-4.192-1.23,23.339,23.339,0,0,0,.953-6.6A2.186,2.186,0,1,1,605.95,1158.06Zm-19.827,22.13a23.585,23.585,0,1,1-8.149-45.71c0.433,0,.872.01,1.3,0.04a2.183,2.183,0,1,0,.237-4.36c-0.509-.03-1.027-0.05-1.539-0.05a27.945,27.945,0,1,0,9.658,54.18A2.184,2.184,0,0,0,586.123,1180.19Zm-8.149-36.98a2.18,2.18,0,1,0,0-4.36,19.207,19.207,0,0,0-9.439,35.95,2.187,2.187,0,0,0,2.148-3.81A14.841,14.841,0,0,1,577.974,1143.21Zm0,34.06a19.235,19.235,0,0,0,9.952-2.77,2.186,2.186,0,0,0-2.264-3.74,14.835,14.835,0,0,1-7.688,2.14A2.185,2.185,0,1,0,577.974,1177.27Zm24.462-25.45a21.391,21.391,0,0,0,3-2.83,2.181,2.181,0,0,0,.5-1.63l-1.58-15.29a2.185,2.185,0,0,0-4.347.45l1.478,14.31a14.714,14.714,0,0,1-4.281,3.09V1132.3a2.186,2.186,0,1,0-4.372,0v17.58a14.643,14.643,0,0,1-4.164-3.04l1.621-14.3a2.186,2.186,0,0,0-4.344-.49l-1.732,15.29a2.2,2.2,0,0,0,.5,1.65,21.93,21.93,0,0,0,2.994,2.83,14.381,14.381,0,0,0,5.129,2.68v29.31a2.186,2.186,0,1,0,4.371,0v-29.29A14.229,14.229,0,0,0,602.436,1151.82Z" transform="translate(-550 -1130.13)"/>
</svg>
