<svg xmlns="http://www.w3.org/2000/svg" width="60" height="45" viewBox="0 0 60 45">
  <defs>
    <style>
      .cls-1 {
        fill: #fff;
        fill-rule: evenodd;
      }
    </style>
  </defs>
  <path class="cls-1" d="M1637.31,17697h-46.62a6.575,6.575,0,0,0-6.69,6.4v32.2a6.575,6.575,0,0,0,6.69,6.4h46.62a6.575,6.575,0,0,0,6.69-6.4v-32.2A6.575,6.575,0,0,0,1637.31,17697Zm-1.28,5-22.03,18.5-22.03-18.5h44.06Zm2.94,33.6a1.539,1.539,0,0,1-1.66,1.4h-46.62a1.539,1.539,0,0,1-1.66-1.4v-29.2l22,18.5a1.721,1.721,0,0,0,1.19.4h3.56a1.737,1.737,0,0,0,1.19-.4l22-18.5v29.2Z" transform="translate(-1584 -17697)"/>
</svg>
