<svg xmlns="http://www.w3.org/2000/svg" width="64" height="61" viewBox="0 0 64 61">
  <defs>
    <style>
      .cls-1 {
        fill: #fff;
        fill-rule: evenodd;
      }
    </style>
  </defs>
  <path id="Shape_5_copy" data-name="Shape 5 copy" class="cls-1" d="M645.055,17728.9a49.4,49.4,0,0,1-17.853-17l6.748-6.6-17.038-16.3-8.393,8a9.688,9.688,0,0,0-2.056,11.5,88.44,88.44,0,0,0,17.794,23.5,93.387,93.387,0,0,0,24.729,17,10.511,10.511,0,0,0,4.576,1,10.636,10.636,0,0,0,7.492-3l8.355-8-17.383-16.6Zm12.463,14.8h0a5.719,5.719,0,0,1-6.349,1,87.431,87.431,0,0,1-23.379-16,84.338,84.338,0,0,1-16.833-22.3,5.2,5.2,0,0,1,1.088-6.1l4.845-4.6,10.027,9.7-5.747,5.5,0.693,1.5a46,46,0,0,0,9.622,12.4,48.144,48.144,0,0,0,13.012,9.2l1.537,0.6,5.933-5.5,10.386,9.9Z" transform="translate(-605.406 -17689)"/>
</svg>
