<svg xmlns="http://www.w3.org/2000/svg" width="83.62" height="84" viewBox="0 0 83.62 84">
  <defs>
    <style>
      .cls-1 {
        fill: #c0482f;
        fill-rule: evenodd;
      }
    </style>
  </defs>
  <path class="cls-1" d="M2831.55,1919a42.031,42.031,0,0,1-7.08,23.32,3.262,3.262,0,0,1-2.72,1.45,3.2,3.2,0,0,1-1.81-.55,3.292,3.292,0,0,1-.9-4.55,35.508,35.508,0,0,0,4.87-28.53,3.27,3.27,0,1,1,6.33-1.64A42.546,42.546,0,0,1,2831.55,1919ZM2808,1949.33a35.44,35.44,0,1,1,1.78-59.51,3.254,3.254,0,0,0,4.54-.83,3.306,3.306,0,0,0-.83-4.57,42,42,0,1,0-2.11,70.53A3.279,3.279,0,0,0,2808,1949.33Zm-17.93-20.82a1.866,1.866,0,0,1-1.38-.52l-17.1-16.29a3.26,3.26,0,0,0-4.62.12,3.294,3.294,0,0,0,.13,4.64l17.1,16.29a8.29,8.29,0,0,0,5.78,2.33c0.12,0,.23,0,0.35-0.01a8.318,8.318,0,0,0,5.93-2.81,1.267,1.267,0,0,0,.11-0.13l34.46-43.07a3.271,3.271,0,1,0-5.09-4.11l-34.39,42.98A1.841,1.841,0,0,1,2790.07,1928.51Z" transform="translate(-2747.94 -1877)"/>
</svg>
