<svg xmlns="http://www.w3.org/2000/svg" width="24" height="24.031" viewBox="0 0 24 24.031">
  <defs>
    <style>
      .cls-1 {
        fill: #555;
        fill-rule: evenodd;
      }
    </style>
  </defs>
  <path id="phone__black" class="cls-1" d="M2941.19,141.022a1.857,1.857,0,0,0-2.81,0c-0.66.655-1.32,1.307-1.96,1.972a0.4,0.4,0,0,1-.55.1c-0.42-.232-0.88-0.421-1.28-0.674a20.31,20.31,0,0,1-4.92-4.484,11.844,11.844,0,0,1-1.77-2.828,0.418,0.418,0,0,1,.1-0.521c0.66-.637,1.3-1.29,1.95-1.942a1.871,1.871,0,0,0-.01-2.884c-0.51-.52-1.02-1.029-1.54-1.551s-1.05-1.067-1.59-1.593a1.866,1.866,0,0,0-2.81.007c-0.67.652-1.3,1.322-1.98,1.963a3.245,3.245,0,0,0-1,2.164,9.047,9.047,0,0,0,.71,3.948,23.883,23.883,0,0,0,4.25,7.089,26.2,26.2,0,0,0,8.71,6.824,12.484,12.484,0,0,0,4.82,1.405,3.526,3.526,0,0,0,3.03-1.156c0.57-.63,1.2-1.206,1.8-1.811a1.886,1.886,0,0,0,.01-2.866Q2942.775,142.6,2941.19,141.022Z" transform="translate(-2921 -126)"/>
</svg>
