<svg xmlns="http://www.w3.org/2000/svg" width="67.82" height="74" viewBox="0 0 67.82 74">
  <defs>
    <style>
      .cls-1 {
        fill: #fff;
        fill-rule: evenodd;
      }
    </style>
  </defs>
  <path id="playmarket" class="cls-1" d="M2112.13,18061c6.01,7.3,12.02,14.7,18.04,22,4.06,4.9,8.13,9.8,12.28,14.8-3.57,4.3-7.09,8.6-10.6,12.8-6.7,8.1-13.4,16.2-20.1,24.4h-1.13a8.5,8.5,0,0,1-6.29-6.4c-0.17-.7-0.32-1.4-0.49-2.1v-57c0.67-4,2.31-7.4,6.78-8.5h1.51Zm59.51,37.4c-0.69,3.8-3.29,6.1-6.63,7.9-2.37,1.2-4.66,2.6-7.06,4-3.47-4.2-6.86-8.3-10.3-12.5,3.39-4.1,6.71-8.1,10.16-12.2,3.42,2,6.79,3.8,10.03,5.9a8.952,8.952,0,0,1,3.8,6.1v0.8Zm-52.03,33.2c8.45-10.2,16.9-20.4,25.44-30.7,3.14,3.8,6.18,7.5,9.38,11.4-11.58,6.5-23.05,13-34.52,19.5A0.53,0.53,0,0,1,2119.61,18131.6Zm1.1-67c11.12,6.3,22.24,12.6,33.52,19-3.11,3.8-6.06,7.3-9.18,11.1-8.25-10-16.43-19.9-24.62-29.8C2120.53,18064.8,2120.62,18064.7,2120.71,18064.6Z" transform="translate(-2103.84 -18061)"/>
</svg>
