<svg xmlns="http://www.w3.org/2000/svg" width="60" height="60" viewBox="0 0 60 60">
  <defs>
    <style>
      .cls-1 {
        fill: #c0482f;
        fill-rule: evenodd;
      }
    </style>
  </defs>
  <path class="cls-1" d="M1947,15489a30.184,30.184,0,0,1-5.08,16.7,2.423,2.423,0,0,1-3.25.6,2.391,2.391,0,0,1-.65-3.3,24.757,24.757,0,0,0,4.2-11.8h-2.13a2.39,2.39,0,0,1-2.35-2.4,2.305,2.305,0,0,1,2.35-2.3h2.1a25.394,25.394,0,0,0-22.73-22.7v2.2a2.345,2.345,0,0,1-4.69,0v-2.2a25.271,25.271,0,0,0-22.96,22.7h2.46a2.3,2.3,0,0,1,2.34,2.3,2.389,2.389,0,0,1-2.34,2.4h-2.49a25.347,25.347,0,0,0,22.99,23v-2.4a2.346,2.346,0,1,1,4.69,0v2.4a26.547,26.547,0,0,0,10.63-3.5,2.34,2.34,0,0,1,2.43,4,30.182,30.182,0,0,1-15.52,4.3,29.988,29.988,0,1,1,30-30h0Zm-30-13.3a2.3,2.3,0,0,0-2.34,2.3v5.2l-8.05-8.3a2.368,2.368,0,0,0-3.31-.1,2.337,2.337,0,0,0-.06,3.3l12.08,12.5a2.194,2.194,0,0,0,1.68.7,2.621,2.621,0,0,0,.88-0.1,2.382,2.382,0,0,0,1.46-2.2v-11A2.3,2.3,0,0,0,1917,15475.7Z" transform="translate(-1887 -15459)"/>
</svg>
