<svg xmlns="http://www.w3.org/2000/svg" width="56" height="55.78" viewBox="0 0 56 55.78">
  <defs>
    <style>
      .cls-1 {
        fill: #c0482f;
        fill-rule: evenodd;
      }
    </style>
  </defs>
  <path class="cls-1" d="M968.819,1145.91a12.84,12.84,0,0,0,1.306-5.37,2.17,2.17,0,0,0-1.356-1.99,2.2,2.2,0,0,0-2.368.46,2.751,2.751,0,0,1-1.227.9,4.528,4.528,0,0,1-1.166-.37,13.529,13.529,0,0,0-5.515-1.16,10.222,10.222,0,0,0-6.813,2.75c0.187-3.34,1.035-5.84,2.435-7.14a2.183,2.183,0,1,0-2.98-3.19c-2.6,2.4-3.528,6.21-3.786,9.55a9.861,9.861,0,0,0-5.843-1.97,13.532,13.532,0,0,0-5.514,1.16,4.517,4.517,0,0,1-1.166.37,2.751,2.751,0,0,1-1.227-.9,2.2,2.2,0,0,0-2.368-.46,2.17,2.17,0,0,0-1.356,1.99,12.763,12.763,0,0,0,1.327,5.4,17.741,17.741,0,0,0-9.2,15.87,23.738,23.738,0,0,0,6.118,16.12,23.4,23.4,0,0,0,8.692,5.83,35.26,35.26,0,0,0,12.971,2.23,34.348,34.348,0,0,0,14.714-2.95,2.174,2.174,0,0,0,1.046-2.9,2.2,2.2,0,0,0-2.911-1.04,30.1,30.1,0,0,1-12.849,2.53c-17.257,0-23.406-10.24-23.406-19.82,0-6.32,3.795-10.9,7.741-12.4a9.5,9.5,0,0,0,2.858,1.4,17.586,17.586,0,0,0-.689,1.9,4.757,4.757,0,0,1-.44,1.12,2.793,2.793,0,0,1-1.467.35,2.173,2.173,0,0,0-1.162,3.87,12.279,12.279,0,0,0,7.1,2.34c0.137,0,.276,0,0.416-0.01a11.943,11.943,0,0,0,7.345-2.93,11,11,0,0,0,1.923-2.23,11.033,11.033,0,0,0,1.922,2.23,11.945,11.945,0,0,0,7.346,2.93c0.14,0.01.278,0.01,0.415,0.01a12.809,12.809,0,0,0,7.174-2.31,2.175,2.175,0,0,0-1.126-3.9,2.912,2.912,0,0,1-1.512-.37,4.352,4.352,0,0,1-.488-1.17,18.344,18.344,0,0,0-.694-1.83,9.541,9.541,0,0,0,2.906-1.45c5.167,2.29,7.682,6.36,7.682,12.45a19.409,19.409,0,0,1-3.376,10.96,2.183,2.183,0,0,0,3.6,2.47,23.769,23.769,0,0,0,4.15-13.43C978,1154.46,974.835,1149,968.819,1145.91Zm-31.2-2.33a9.424,9.424,0,0,1,3.888-.84,5.874,5.874,0,0,1,3.813,1.56,9,9,0,0,0-5.641,2.61,5.3,5.3,0,0,1-4.429-2.66A7.916,7.916,0,0,0,937.618,1143.58Zm7.549,10.62a7.71,7.71,0,0,1-4.6,1.83,6.946,6.946,0,0,1-.92-0.03,9.072,9.072,0,0,0,.809-1.98,8.876,8.876,0,0,1,1.809-3.49,5.031,5.031,0,0,1,4.356-1.94c0.4,0,.772.01,1.112,0.03A8.333,8.333,0,0,1,945.167,1154.2Zm14.264,1.83a7.71,7.71,0,0,1-4.6-1.83,8.333,8.333,0,0,1-2.568-5.58c0.34-.02.715-0.03,1.112-0.03a5.033,5.033,0,0,1,4.357,1.94,9.376,9.376,0,0,1,1.847,3.49,9.172,9.172,0,0,0,.84,1.97A8.015,8.015,0,0,1,959.431,1156.03Zm0.891-9.12a9,9,0,0,0-5.641-2.61,5.871,5.871,0,0,1,3.812-1.56,9.425,9.425,0,0,1,3.889.84,7.916,7.916,0,0,0,2.369.67A5.3,5.3,0,0,1,960.322,1146.91Z" transform="translate(-922 -1130.22)"/>
</svg>
