<svg xmlns="http://www.w3.org/2000/svg" width="60" height="60" viewBox="0 0 60 60">
  <defs>
    <style>
      .cls-1 {
        fill: #c0482f;
        fill-rule: evenodd;
      }
    </style>
  </defs>
  <path class="cls-1" d="M2620.43,15496a2.345,2.345,0,0,1,4.69,0A2.346,2.346,0,1,1,2620.43,15496Zm18.77,2.4a2.382,2.382,0,0,0,2.34-2.4,2.34,2.34,0,0,0-4.68,0A2.389,2.389,0,0,0,2639.2,15498.4Zm11.86,16.9a2.254,2.254,0,0,1-.52,3.2,1.86,1.86,0,0,1-1.37.5,2.2,2.2,0,0,1-1.9-1l-9.14-12.5c-0.02,0-.04-0.1-0.06-0.1h-14.06a0.305,0.305,0,0,1-.15.2l-3.03,4.1h15.09a2.39,2.39,0,0,1,2.35,2.4,2.305,2.305,0,0,1-2.35,2.3h-18.53l-2.67,3.6a2.2,2.2,0,0,1-1.89,1,1.869,1.869,0,0,1-1.38-.5,2.242,2.242,0,0,1-.5-3.2l7.5-10.2a7.065,7.065,0,0,1-4.91-6.7v-18.1a9.362,9.362,0,0,1,9.37-9.3h16.41a9.37,9.37,0,0,1,9.38,9.3v18.1a6.932,6.932,0,0,1-5.05,6.7Zm-11.74-39.7h-0.82v0.6a2.38,2.38,0,0,1-2.33,2.4h-2.83v7.9h10.67v-6.2A4.692,4.692,0,0,0,2639.32,15475.6Zm-21.09,4.7v6.2h10.43v-7.9h-3.07a2.378,2.378,0,0,1-2.32-2.4v-0.6h-0.36A4.69,4.69,0,0,0,2618.23,15480.3Zm0,18.1a2.3,2.3,0,0,0,2.34,2.3h21.09a2.305,2.305,0,0,0,2.35-2.3v-7.2h-25.78v7.2Zm33.98-30.6A30,30,0,0,0,2601,15489a30.157,30.157,0,0,0,6.61,18.8,2.285,2.285,0,0,0,1.83.9,2.189,2.189,0,0,0,1.47-.6,2.23,2.23,0,0,0,.35-3.2,25.323,25.323,0,1,1,45.05-15.9,25.146,25.146,0,0,1-5.36,15.6,2.347,2.347,0,1,0,3.69,2.9A30.018,30.018,0,0,0,2652.21,15467.8Z" transform="translate(-2601 -15459)"/>
</svg>
