<svg xmlns="http://www.w3.org/2000/svg" width="46" height="38" viewBox="0 0 46 38">
  <defs>
    <style>
      .cls-1 {
        fill: #fff;
        fill-rule: evenodd;
      }
    </style>
  </defs>
  <path id="_-e-Shape_5" data-name="-e-Shape 5" class="cls-1" d="M3194.99,4681.5h-30.52l-2.23-6h-11.23v4h8.43l1.7,4.55a0.833,0.833,0,0,0,.04.15l6.03,16.08a2.007,2.007,0,0,0,2.08,1.29l20.21-2.01a2.026,2.026,0,0,0,1.67-1.24l5.69-14.08a2,2,0,0,0-1.13-2.6A2.069,2.069,0,0,0,3194.99,4681.5Zm-7.1,14.21-17.46,1.73-4.47-11.94h26.06Zm-22.82,9.79a4,4,0,1,0,4.02,4h0a4.01,4.01,0,0,0-4.02-4h0Zm20.1,0a4,4,0,1,0,4.01,4h0a4,4,0,0,0-4.01-4h0Z" transform="translate(-3151 -4675.5)"/>
</svg>
